{"accessors":[{"bufferView":0,"componentType":5126,"count":1,"max":[0.0],"min":[0.0],"normalized":false,"type":"SCALAR"},{"bufferView":1,"componentType":5126,"count":1,"max":[544.0,-12.0,0.0],"min":[544.0,-12.0,0.0],"normalized":false,"type":"VEC3"},{"bufferView":2,"componentType":5126,"count":2,"max":[2.0],"min":[0.0],"normalized":false,"type":"SCALAR"},{"bufferView":3,"componentType":5126,"count":2,"max":[677.0,-12.0,0.0],"min":[544.0,-12.0,0.0],"normalized":false,"type":"VEC3"}],"animations":[{"channels":[{"sampler":0,"target":{"node":108,"path":"translation"}}],"name":"RESET","samplers":[{"input":0,"interpolation":"LINEAR","output":1}]},{"channels":[{"sampler":0,"target":{"node":108,"path":"translation"}}],"name":"move","samplers":[{"input":2,"interpolation":"LINEAR","output":3}]}],"asset":{"generator":"Godot Engine v4.5.stable.official@876b290332ec6f2e6d173d08162a02aa7e6ca46d","version":"2.0"},"bufferViews":[{"buffer":0,"byteLength":4},{"buffer":0,"byteLength":12,"byteOffset":4},{"buffer":0,"byteLength":8,"byteOffset":16},{"buffer":0,"byteLength":24,"byteOffset":24}],"buffers":[{"byteLength":48,"uri":"game0.bin"}],"extensionsUsed":["GODOT_single_root"],"nodes":[{"children":[1,2,3,7,10,104,111,118],"name":"Game"},{"name":"Game manager"},{"name":"TileMap"},{"children":[4,5,6],"name":"Player"},{"name":"AnimatedSprite2D"},{"name":"CollisionShape2D"},{"name":"Camera2D"},{"children":[8,9],"name":"Kill zone"},{"name":"Timer"},{"name":"CollisionShape2D2"},{"children":[11,14,17,20,23,26,29,32,35,38,41,44,47,50,53,56,59,62,65,68,71,74,77,80,83,86,89,92,95,98,101],"name":"Coins"},{"children":[12,13],"name":"Coin"},{"name":"AnimatedSprite2D2"},{"name":"CollisionShape2D3"},{"children":[15,16],"name":"Coin2"},{"name":"AnimatedSprite2D3"},{"name":"CollisionShape2D4"},{"children":[18,19],"name":"Coin3"},{"name":"AnimatedSprite2D4"},{"name":"CollisionShape2D5"},{"children":[21,22],"name":"Coin4"},{"name":"AnimatedSprite2D5"},{"name":"CollisionShape2D6"},{"children":[24,25],"name":"Coin5"},{"name":"AnimatedSprite2D6"},{"name":"CollisionShape2D7"},{"children":[27,28],"name":"Coin6"},{"name":"AnimatedSprite2D7"},{"name":"CollisionShape2D8"},{"children":[30,31],"name":"Coin7"},{"name":"AnimatedSprite2D8"},{"name":"CollisionShape2D9"},{"children":[33,34],"name":"Coin8"},{"name":"AnimatedSprite2D9"},{"name":"CollisionShape2D10"},{"children":[36,37],"name":"Coin9"},{"name":"AnimatedSprite2D10"},{"name":"CollisionShape2D11"},{"children":[39,40],"name":"Coin10"},{"name":"AnimatedSprite2D11"},{"name":"CollisionShape2D12"},{"children":[42,43],"name":"Coin11"},{"name":"AnimatedSprite2D12"},{"name":"CollisionShape2D13"},{"children":[45,46],"name":"Coin12"},{"name":"AnimatedSprite2D13"},{"name":"CollisionShape2D14"},{"children":[48,49],"name":"Coin13"},{"name":"AnimatedSprite2D14"},{"name":"CollisionShape2D15"},{"children":[51,52],"name":"Coin14"},{"name":"AnimatedSprite2D15"},{"name":"CollisionShape2D16"},{"children":[54,55],"name":"Coin15"},{"name":"AnimatedSprite2D16"},{"name":"CollisionShape2D17"},{"children":[57,58],"name":"Coin16"},{"name":"AnimatedSprite2D17"},{"name":"CollisionShape2D18"},{"children":[60,61],"name":"Coin17"},{"name":"AnimatedSprite2D18"},{"name":"CollisionShape2D19"},{"children":[63,64],"name":"Coin18"},{"name":"AnimatedSprite2D19"},{"name":"CollisionShape2D20"},{"children":[66,67],"name":"Coin19"},{"name":"AnimatedSprite2D20"},{"name":"CollisionShape2D21"},{"children":[69,70],"name":"Coin20"},{"name":"AnimatedSprite2D21"},{"name":"CollisionShape2D22"},{"children":[72,73],"name":"Coin21"},{"name":"AnimatedSprite2D22"},{"name":"CollisionShape2D23"},{"children":[75,76],"name":"Coin22"},{"name":"AnimatedSprite2D23"},{"name":"CollisionShape2D24"},{"children":[78,79],"name":"Coin23"},{"name":"AnimatedSprite2D24"},{"name":"CollisionShape2D25"},{"children":[81,82],"name":"Coin24"},{"name":"AnimatedSprite2D25"},{"name":"CollisionShape2D26"},{"children":[84,85],"name":"Coin25"},{"name":"AnimatedSprite2D26"},{"name":"CollisionShape2D27"},{"children":[87,88],"name":"Coin26"},{"name":"AnimatedSprite2D27"},{"name":"CollisionShape2D28"},{"children":[90,91],"name":"Coin27"},{"name":"AnimatedSprite2D28"},{"name":"CollisionShape2D29"},{"children":[93,94],"name":"Coin28"},{"name":"AnimatedSprite2D29"},{"name":"CollisionShape2D30"},{"children":[96,97],"name":"Coin29"},{"name":"AnimatedSprite2D30"},{"name":"CollisionShape2D31"},{"children":[99,100],"name":"Coin30"},{"name":"AnimatedSprite2D31"},{"name":"CollisionShape2D32"},{"children":[102,103],"name":"Coin31"},{"name":"AnimatedSprite2D32"},{"name":"CollisionShape2D33"},{"children":[105,108],"name":"Platforms"},{"children":[106,107],"name":"Platform 1"},{"name":"Sprite2D"},{"name":"CollisionShape2D34"},{"children":[109,110],"name":"Platform 2"},{"name":"Sprite2D2"},{"name":"CollisionShape2D35"},{"children":[112,113,115,116,117],"name":"Slime"},{"name":"AnimatedSprite2D33"},{"children":[114],"name":"Kill zone2"},{"name":"Timer2"},{"name":"CollisionShape2D36"},{"name":"RayCastRight"},{"name":"RayCastLeft"},{"children":[119,120,121,122,123],"name":"Labels"},{"name":"Label"},{"name":"Label2"},{"name":"Label3"},{"name":"Label5"},{"name":"Label4"}],"scene":0,"scenes":[{"nodes":[0]}]}